<svg xmlns="http://www.w3.org/2000/svg" viewBox="0 0 300 200">
  <defs>
    <linearGradient id="bg5" x1="0%" y1="0%" x2="100%" y2="100%">
      <stop offset="0%" stop-color="#1565C0"/>
      <stop offset="100%" stop-color="#0A1A3D"/>
    </linearGradient>
  </defs>
  <rect width="300" height="200" rx="12" fill="url(#bg5)"/>
  <!-- Speedometer -->
  <circle cx="150" cy="115" r="78" fill="none" stroke="#40C4FF" stroke-width="6"/>
  <path d="M77,115 A73,73 0 1,1 223,115" fill="none" stroke="#1565C0" stroke-width="26"/>
  <path d="M77,115 A73,73 0 0,1 150,42" fill="none" stroke="#FFD700" stroke-width="12" stroke-linecap="round"/>
  <path d="M150,42 A73,73 0 0,1 223,115" fill="none" stroke="#FF4444" stroke-width="12" stroke-linecap="round"/>
  <!-- Tick marks -->
  <line x1="150" y1="45" x2="150" y2="59" stroke="white" stroke-width="3.5"/>
  <line x1="98" y1="62" x2="106" y2="73" stroke="white" stroke-width="3.5"/>
  <line x1="79" y1="115" x2="93" y2="115" stroke="white" stroke-width="3.5"/>
  <line x1="202" y1="62" x2="194" y2="73" stroke="white" stroke-width="3.5"/>
  <line x1="221" y1="115" x2="207" y2="115" stroke="white" stroke-width="3.5"/>
  <!-- Needle -->
  <line x1="150" y1="115" x2="110" y2="68" stroke="#FF4444" stroke-width="5" stroke-linecap="round"/>
  <circle cx="150" cy="115" r="12" fill="#40C4FF"/>
  <circle cx="150" cy="115" r="5" fill="#0A1A3D"/>
</svg>
